<svg xmlns="http://www.w3.org/2000/svg" viewBox="0 0 512 512"><defs><style>.cls-1{fill:#00cdd7;}.cls-2{fill:#222831;}</style></defs><g id="Layer_2" data-name="Layer 2"><g id="Layer_1-2" data-name="Layer 1"><rect class="cls-1" width="512" height="512"/><path class="cls-2" d="M251.05,165.86V328.57a17.57,17.57,0,0,1-17.57,17.57H200.59V220.67L169.05,333.31a17.55,17.55,0,0,1-16.91,12.83H136.27L100.22,222.78V328.57a17.57,17.57,0,0,1-17.57,17.57h0V183.43a17.57,17.57,0,0,1,17.57-17.57h35.53l30.9,108.83,27.16-96a17.56,17.56,0,0,1,16.9-12.79Z"/><path class="cls-2" d="M334.39,256.46v72.11a17.57,17.57,0,0,1-17.57,17.57H282.09V183.43a17.56,17.56,0,0,1,17.56-17.57h34.74v72.51h42.66V183.43a17.56,17.56,0,0,1,17.56-17.57h34.74V328.57a17.57,17.57,0,0,1-17.57,17.57H377.05V256.46Z"/></g></g></svg>